<svg width="64" height="64" viewBox="0 0 64 64" fill="none" xmlns="http://www.w3.org/2000/svg">
  <!-- Lotus/Star pattern inspired by the uploaded image -->
  <!-- Outer petals/rays -->
  <path d="M32 4L28 16H36L32 4Z" fill="none" stroke="#00365b" stroke-width="2.5" stroke-linecap="round" stroke-linejoin="round"/>
  <path d="M44 8L40 20H48L44 8Z" fill="none" stroke="#00365b" stroke-width="2.5" stroke-linecap="round" stroke-linejoin="round"/>
  <path d="M54 18L46 26H54L62 26L54 18Z" fill="none" stroke="#00365b" stroke-width="2.5" stroke-linecap="round" stroke-linejoin="round"/>
  <path d="M60 32L50 28V36L60 32Z" fill="none" stroke="#00365b" stroke-width="2.5" stroke-linecap="round" stroke-linejoin="round"/>
  <path d="M54 46L46 38H54L62 38L54 46Z" fill="none" stroke="#00365b" stroke-width="2.5" stroke-linecap="round" stroke-linejoin="round"/>
  <path d="M44 56L40 44H48L44 56Z" fill="none" stroke="#00365b" stroke-width="2.5" stroke-linecap="round" stroke-linejoin="round"/>
  <path d="M32 60L28 48H36L32 60Z" fill="none" stroke="#00365b" stroke-width="2.5" stroke-linecap="round" stroke-linejoin="round"/>
  <path d="M20 56L24 44H16L20 56Z" fill="none" stroke="#00365b" stroke-width="2.5" stroke-linecap="round" stroke-linejoin="round"/>
  <path d="M10 46L18 38H10L2 38L10 46Z" fill="none" stroke="#00365b" stroke-width="2.5" stroke-linecap="round" stroke-linejoin="round"/>
  <path d="M4 32L14 28V36L4 32Z" fill="none" stroke="#00365b" stroke-width="2.5" stroke-linecap="round" stroke-linejoin="round"/>
  <path d="M10 18L18 26H10L2 26L10 18Z" fill="none" stroke="#00365b" stroke-width="2.5" stroke-linecap="round" stroke-linejoin="round"/>
  <path d="M20 8L24 20H16L20 8Z" fill="none" stroke="#00365b" stroke-width="2.5" stroke-linecap="round" stroke-linejoin="round"/>
  
  <!-- Inner curved petals -->
  <path d="M32 20C36 20 40 24 40 28C40 24 44 20 48 20C44 20 40 16 40 12C40 16 36 20 32 20Z" fill="none" stroke="#00365b" stroke-width="2" stroke-linecap="round" stroke-linejoin="round"/>
  <path d="M44 32C44 36 40 40 36 40C40 40 44 44 44 48C44 44 48 40 52 40C48 40 44 36 44 32Z" fill="none" stroke="#00365b" stroke-width="2" stroke-linecap="round" stroke-linejoin="round"/>
  <path d="M32 44C28 44 24 40 24 36C24 40 20 44 16 44C20 44 24 48 24 52C24 48 28 44 32 44Z" fill="none" stroke="#00365b" stroke-width="2" stroke-linecap="round" stroke-linejoin="round"/>
  <path d="M20 32C20 28 24 24 28 24C24 24 20 20 20 16C20 20 16 24 12 24C16 24 20 28 20 32Z" fill="none" stroke="#00365b" stroke-width="2" stroke-linecap="round" stroke-linejoin="round"/>
  
  <!-- Center circle -->
  <circle cx="32" cy="32" r="6" fill="none" stroke="#00365b" stroke-width="2"/>
</svg>